<?xml version="1.0" encoding="UTF-8"?>
<svg width="139px" height="32px" viewBox="0 0 139 32" version="1.1" xmlns="http://www.w3.org/2000/svg" xmlns:xlink="http://www.w3.org/1999/xlink">
    <title>logo</title>
    <g id="Shop" stroke="none" stroke-width="1" fill="none" fill-rule="evenodd">
        <g id="Artboard" transform="translate(-129.000000, -26.000000)" fill="#E30A17" fill-rule="nonzero">
            <g id="header" transform="translate(129.000000, 18.000000)">
                <g id="logo" transform="translate(0.000000, 8.000000)">
                    <g id="_x39_582a67b-dc7f-4705-a1db-37010cb01e6c" transform="translate(42.000000, 4.000000)">
                        <polygon id="e2fe9ba3-b3d0-416f-b501-f06305091426" points="0.794905869 7.47014925 3.68449612 7.47014925 3.68449612 27.6656716 0.794905869 27.6656716"></polygon>
                        <path d="M8.08870432,23.6641791 L10.441196,22.3791045 C11.3435216,24.1447761 12.9548173,25.5865672 15.7155039,25.5865672 C18.0679956,25.5865672 19.754485,24.3850746 19.754485,22.5358209 C19.754485,20.6865672 18.63732,19.7253731 16.0055371,18.6074627 L14.3620155,17.8865672 C11.4401993,16.6850746 9.58183832,15.1179104 9.58183832,12.1925373 C9.58183832,9.06865672 12.1384275,7.14626866 15.3932447,7.14626866 C18.282835,7.14626866 20.0874862,8.30597015 21.3657807,10.1970149 L19.1851606,11.638806 C18.3150609,10.3955224 17.2516058,9.51791045 15.4791805,9.51791045 C13.7067553,9.51791045 12.3854928,10.4791045 12.3854928,12.161194 C12.3854928,13.8432836 13.2878184,14.5223881 15.307309,15.4104478 L16.9937984,16.1313433 C20.4956811,17.6149254 22.6440753,19.2552239 22.6440753,22.5044776 C22.6440753,25.7537313 19.8833887,28 15.7584718,28 C11.8806202,27.9895522 9.24883721,25.9835821 8.08870432,23.6641791 Z" id="cdfe35b3-6f53-4364-8184-c5907cf44628"></path>
                        <polygon id="_x39_e328f9c-6175-466c-a6c6-454f7d6dc2ca" points="31.7854928 9.95671642 25.361794 9.95671642 25.361794 7.47014925 41.1417497 7.47014925 41.1417497 9.95671642 34.7180509 9.95671642 34.7180509 27.6761194 31.7854928 27.6761194 31.7854928 9.95671642"></polygon>
                        <polygon id="_x34_337a407-89e0-4c93-a18b-754c37a1aa4f" points="45.7500554 7.47014925 58.8982281 7.47014925 58.8982281 9.95671642 48.6826135 9.95671642 48.6826135 18.2104478 57.6629014 18.2104478 57.6629014 20.5716418 48.6826135 20.5716418 48.6826135 25.2208955 59.317165 25.2208955 59.317165 27.6656716 45.7500554 27.6656716"></polygon>
                        <path d="M79.2112957,27.6656716 L75.9135105,27.6656716 L72.1215947,22.2955224 C71.4985604,22.4104478 70.8647841,22.4626866 70.2310078,22.4522388 L67.4703212,22.4522388 L67.4703212,27.6656716 L64.548505,27.6656716 L64.548505,7.47014925 L70.2310078,7.47014925 C75.7953488,7.47014925 78.9642303,10.4791045 78.9642303,14.961194 C78.9642303,18.0119403 77.4818383,20.2895522 74.8070875,21.4492537 L79.2112957,27.6656716 Z M70.1021041,20.0074627 C74.3881506,20.0074627 75.9994463,17.9283582 75.9994463,14.961194 C75.9994463,11.9940299 74.3881506,9.94626866 70.1021041,9.94626866 L67.4595792,9.94626866 L67.4595792,20.0179104 L70.1021041,20.0074627 Z" id="_x34_1d010a1-7598-4629-99a0-ca6c0733dc79"></path>
                        <path d="M82.3479513,23.6641791 L84.700443,22.3791045 C85.6027685,24.1447761 87.2140642,25.5865672 89.9747508,25.5865672 C92.3272425,25.5865672 94.013732,24.3850746 94.013732,22.5358209 C94.013732,20.6865672 92.896567,19.7253731 90.2647841,18.6074627 L88.6212625,17.8865672 C85.6994463,16.6850746 83.8410853,15.1179104 83.8410853,12.1925373 C83.8410853,9.06865672 86.3976744,7.14626866 89.6524917,7.14626866 C92.5420819,7.14626866 94.3467331,8.30597015 95.6250277,10.1970149 L93.4444075,11.638806 C92.5743079,10.3955224 91.5108527,9.51791045 89.7384275,9.51791045 C87.9660022,9.51791045 86.6447398,10.4791045 86.6447398,12.161194 C86.6447398,13.8432836 87.5470653,14.5223881 89.5665559,15.4104478 L91.2530454,16.1313433 C94.754928,17.6149254 96.9033223,19.2552239 96.9033223,22.5044776 C96.9033223,25.7537313 94.1426357,28 90.0177187,28 C86.1398671,27.9895522 83.4973422,25.9835821 82.3479513,23.6641791 Z" id="_x33_d38bdb3-77b2-42f1-884a-0e5ef09f5eaf"></path>
                        <path d="M0.0214839424,2.25671642 C0.0322259136,1.06567164 1.02048726,0.104477612 2.24507198,0.0940298507 C3.4696567,0.0835820896 4.45791805,1.04477612 4.46866002,2.2358209 C4.46866002,2.24626866 4.46866002,2.24626866 4.46866002,2.25671642 C4.47940199,3.45820896 3.48039867,4.44029851 2.24507198,4.46119403 C1.00974529,4.42985075 0.0322259136,3.45820896 0.0214839424,2.25671642 Z" id="_x39_881837b-2eae-46cc-b80c-79a737b340a6"></path>
                    </g>
                    <g id="_x33_8e04ad4-f865-4252-8d35-2078da76eb6f">
                        <path d="M33.9573668,31.9673469 L28.7241379,31.9673469 L28.7241379,16.5877551 L25.7504702,19.5809524 L18.2789969,27.1020408 L6.76802508,15.3469388 L6.76802508,10.0136054 L18.2789969,21.7687075 L23.4163009,16.522449 L33.9467085,5.76870748 L33.9573668,31.9673469 Z M33.9573668,2.68843537 L18.2896552,18.6884354 L8.17492163,8.34829932 L5.23322884,5.34421769 L5.23322884,31.9673469 L0,31.9673469 L0,0 L5.23322884,0 L10.4025078,5.27891156 L18.3003135,13.3442177 L31.3460815,0.0217687075 L33.9573668,0.0217687075 L33.9573668,2.68843537 Z" id="_x36_35aade2-f60e-4425-8674-8b7fc21e0082"></path>
                    </g>
                </g>
            </g>
        </g>
    </g>
</svg>